/* XPM */
static const char * save_xpm[] = {
"16 16 127 2",
"  	c None",
". 	c #42A9E5",
"+ 	c #5CBBEC",
"@ 	c #69BBE7",
"# 	c #6BBEEA",
"$ 	c #5CADE2",
"% 	c #5DB6EA",
"& 	c #59B3E6",
"* 	c #8DD9F6",
"= 	c #80D4F5",
"- 	c #D0C8CB",
"; 	c #F3F5F4",
"> 	c #F0F1F1",
", 	c #A19A9D",
"' 	c #A59EA0",
") 	c #D5D3D4",
"! 	c #D3CBCE",
"~ 	c #8CD9F8",
"{ 	c #55B5E8",
"] 	c #54AFE4",
"^ 	c #7DD2F4",
"/ 	c #84D5F5",
"( 	c #CDC5C8",
"_ 	c #EFF0F0",
": 	c #ECEDED",
"< 	c #4A6983",
"[ 	c #71B8DC",
"} 	c #D4CACC",
"| 	c #50A9E0",
"1 	c #79CDF2",
"2 	c #7DCEF4",
"3 	c #C4B9BC",
"4 	c #E6E8E7",
"5 	c #E3E4E5",
"6 	c #547E9F",
"7 	c #80D5FB",
"8 	c #9C9496",
"9 	c #CBC0C3",
"0 	c #44A1DF",
"a 	c #75CAF1",
"b 	c #BFB5B8",
"c 	c #E2E3E5",
"d 	c #DFE0E1",
"e 	c #5280A3",
"f 	c #82DAFF",
"g 	c #9C8F90",
"h 	c #C7BEC1",
"i 	c #429FDC",
"j 	c #499DD9",
"k 	c #6CC5F0",
"l 	c #71C7F0",
"m 	c #B5ABAE",
"n 	c #D9D9DB",
"o 	c #D5D6D8",
"p 	c #BAB7BA",
"q 	c #BCB8BA",
"r 	c #D0D1D3",
"s 	c #3C97D8",
"t 	c #479AD6",
"u 	c #67C3EF",
"v 	c #AB9EA2",
"w 	c #D9D8D8",
"x 	c #D7D6D7",
"y 	c #D8D7D7",
"z 	c #DAD9D8",
"A 	c #3A93D4",
"B 	c #4294D2",
"C 	c #5CBFF0",
"D 	c #6992B8",
"E 	c #677B97",
"F 	c #657B97",
"G 	c #63C1F0",
"H 	c #3489CE",
"I 	c #4090D0",
"J 	c #50BAEE",
"K 	c #FFFFFE",
"L 	c #56BCEF",
"M 	c #3B8BCC",
"N 	c #44B2EC",
"O 	c #ABA9B3",
"P 	c #8B8797",
"Q 	c #7E7686",
"R 	c #736F7D",
"S 	c #655E6D",
"T 	c #5B555F",
"U 	c #4D4754",
"V 	c #48414D",
"W 	c #38313B",
"X 	c #49B5EE",
"Y 	c #2E7DC8",
"Z 	c #3985C9",
"` 	c #3EAEEB",
" .	c #F7F7F8",
"..	c #2C7BC6",
"+.	c #337DC4",
"@.	c #32A7E7",
"#.	c #39ABE9",
"$.	c #2773C0",
"%.	c #2BA2E7",
"&.	c #DADADC",
"*.	c #D7D8D9",
"=.	c #D6D7D8",
"-.	c #D6D5D8",
";.	c #D4D4D7",
">.	c #D1D2D4",
",.	c #CECDD0",
"'.	c #2670BE",
").	c #2F77BE",
"!.	c #1C9CE5",
"~.	c #A6A4AF",
"{.	c #8E899A",
"].	c #76717C",
"^.	c #5E5663",
"/.	c #259EE5",
"(.	c #216CBB",
"_.	c #2872BC",
":.	c #159AE4",
"<.	c #D8DADB",
"[.	c #DBDCDD",
"}.	c #DCDEDE",
"|.	c #DDDFE0",
"1.	c #DFE1E2",
"2.	c #E1E2E3",
"3.	c #1C68B6",
"4.	c #1C61AF",
"5.	c #175AAC",
"6.	c #2A6BB0",
". + + @ @ # # # # # # @ $ %     ",
"& * = - ; > > > > , ' ) ! ~ {   ",
"] ^ / ( _ : : : : < [ , } / ~ $ ",
"| 1 2 3 4 5 5 5 5 6 7 8 9 2 2 0 ",
"| a 1 b c d d d d e f g h 1 1 i ",
"j k l m n o o o o p q r m l l s ",
"t u k v w ) ) ) ) x y z v k k A ",
"B C D E F F F F F F F F E D G H ",
"I J ) K K K K K K K K K K ) L H ",
"M N ) O P Q R S T U V W T ) X Y ",
"Z ` )  . . . . . . . . . .) N ..",
"+.@.) O P Q R S T U V W T ) #.$.",
"+.%.) &.*.=.-.;.>.r r ,.>.) @.'.",
").!.) ~.{.Q ].S ^.U V W T ) /.(.",
"_.:.) <.[.}.|.d 1.2.c c d ) !.3.",
"4.5.4.6.6.6.6.6.6.6.6.6.6.4.5.5."};
