/* XPM */
static const char * acceptable_xpm[] = {
"16 16 38 1",
" 	c None",
".	c #DCAE00",
"+	c #DDB133",
"@	c #DCB022",
"#	c #E2BD6C",
"$	c #F2E4CD",
"%	c #F0DFC4",
"&	c #DCAF12",
"*	c #DCAD00",
"=	c #E5C587",
"-	c #FCF9F4",
";	c #FAF5ED",
">	c #E4C37F",
",	c #FCF8F3",
"'	c #FAF3EB",
")	c #DBAC00",
"!	c #E3C076",
"~	c #FBF8F2",
"{	c #F9F2E9",
"]	c #FBF7F1",
"^	c #F8F1E7",
"/	c #E1BB65",
"(	c #FBF7F0",
"_	c #F7EFE4",
":	c #E1BA61",
"<	c #F6EDDF",
"[	c #DFB549",
"}	c #F1E2CA",
"|	c #EEDAB7",
"1	c #DFB64B",
"2	c #EEDAB9",
"3	c #EBD4AA",
"4	c #E5C687",
"5	c #F9F2E8",
"6	c #DEB33E",
"7	c #E0B756",
"8	c #F1E0C5",
"9	c #EDD9B5",
"      ....      ",
"    ...+@...    ",
"  ....#$%&....  ",
"  ...*=-;.....  ",
" ....*>,')..... ",
" ....*!~{)..... ",
"......#]^)......",
"....../(_)......",
"......:(<)......",
"......[}|*......",
" .....123*..... ",
" ....*4(56..... ",
"  ....789.....  ",
"  .....**.....  ",
"    ........    ",
"      ....      "};
