/* XPM */
static const char * crashed_xpm[] = {
"16 16 29 1",
" 	c None",
".	c #000000",
"+	c #010101",
"@	c #8B8B8B",
"#	c #CCCCCC",
"$	c #9D9D9D",
"%	c #9E9E9E",
"&	c #CBCBCB",
"*	c #898989",
"=	c #CFCFCF",
"-	c #FDFDFD",
";	c #F5F5F5",
">	c #A1A1A1",
",	c #202020",
"'	c #212121",
")	c #A3A3A3",
"!	c #F6F6F6",
"~	c #A2A2A2",
"{	c #FFFFFF",
"]	c #A5A5A5",
"^	c #F7F7F7",
"/	c #A0A0A0",
"(	c #F8F8F8",
"_	c #A6A6A6",
":	c #222222",
"<	c #A4A4A4",
"[	c #F4F4F4",
"}	c #8A8A8A",
"|	c #CACACA",
"      ....      ",
"    ........    ",
"  ....+..+....  ",
"  .@#$...+%&*.  ",
" ..=-;>,')!-#.. ",
" ..~!{;)]^{;/.. ",
"..+.)!{^({;>.+..",
"....'_({{^),....",
"....:_({{^)'....",
"..+.<({!({!~.+..",
" ..<!{[><!{;/.. ",
" ..=-;/,'~;-#.. ",
"  .}&$....$|*.  ",
"  ....+..+....  ",
"    ........    ",
"      ....      "};
