/* XPM */
static const char * negligible_xpm[] = {
"16 16 88 1",
" 	c None",
".	c #0F8C20",
"+	c #1B8D27",
"@	c #0E8C20",
"#	c #008B19",
"$	c #188C25",
"%	c #038B1B",
"&	c #028B1A",
"*	c #048B1B",
"=	c #1D8D29",
"-	c #3E9545",
";	c #278F31",
">	c #158D24",
",	c #008B17",
"'	c #008B16",
")	c #008B18",
"!	c #33913B",
"~	c #B0CAB3",
"{	c #F5F7F4",
"]	c #C5D6C5",
"^	c #36923C",
"/	c #008A11",
"(	c #519A54",
"_	c #76A978",
":	c #319137",
"<	c #3A9342",
"[	c #B3CBB6",
"}	c #F9FBFA",
"|	c #FFFFFF",
"1	c #DAE5D9",
"2	c #519A53",
"3	c #168D24",
"4	c #3B933E",
"5	c #C2D5C0",
"6	c #EAF0EA",
"7	c #BDD1BC",
"8	c #2D9136",
"9	c #34913B",
"0	c #B4CCB6",
"a	c #F7FAF8",
"b	c #EDF2EC",
"c	c #89B28A",
"d	c #018B1A",
"e	c #178D25",
"f	c #1E8D2A",
"g	c #479749",
"h	c #D8E4D8",
"i	c #F9FBF9",
"j	c #BDD3BF",
"k	c #39933F",
"l	c #2A9034",
"m	c #B3CDB6",
"n	c #EFF4EE",
"o	c #80AE82",
"p	c #138C22",
"q	c #1F8D2A",
"r	c #008A0F",
"s	c #87B289",
"t	c #EBF1EB",
"u	c #FAFCFA",
"v	c #B7CDB8",
"w	c #B8D1BB",
"x	c #FAFDFB",
"y	c #ECF2EC",
"z	c #81AE83",
"A	c #148C23",
"B	c #008903",
"C	c #86B187",
"D	c #E7EFE9",
"E	c #FCFDFC",
"F	c #FFFFFE",
"G	c #EAF1EA",
"H	c #89B38A",
"I	c #128C22",
"J	c #83AF85",
"K	c #E6EDE6",
"L	c #EBF2EC",
"M	c #89B38B",
"N	c #098C1D",
"O	c #178D24",
"P	c #82AE83",
"Q	c #E6EDE5",
"R	c #EAF0E9",
"S	c #7DAD80",
"T	c #0E8C1F",
"U	c #3A923F",
"V	c #35913B",
"W	c #0C8C1F",
"      .++.      ",
"    @######@    ",
"  $%########&$  ",
"  *########=-;  ",
" >,')####'!~{]^ ",
" /(_:'##'<[}|12 ",
"345678'#90a|bcde",
"fgh|ijklm}|nop)q",
"qrst|uvwx|yzA##q",
"e#BCD|E|FGHI###e",
" ##,JK||LMN)### ",
" >##OPQRSA)###> ",
"  *##TUVW####*  ",
"  $%##)#####%$  ",
"    @######@    ",
"      .++.      "};
