/* XPM */
static const char * outofdate2_xpm[] = {
"16 16 2 1",
" 	c None",
".	c #007CFF",
"                ",
"                ",
"                ",
"                ",
"                ",
"   .....        ",
"  .......       ",
" .........      ",
"...... ....     ",
"...... ....     ",
"...... ....     ",
"....   ....     ",
"...........     ",
" .........      ",
"  .......       ",
"   .....        "};
