/* XPM */
static const char * outofdate_xpm[] = {
"16 16 2 1",
" 	c None",
".	c #FFA200",
"                ",
"                ",
"                ",
"                ",
"                ",
"        .....   ",
"       .......  ",
"      ......... ",
"     ...... ....",
"     ...... ....",
"     ...... ....",
"     ....   ....",
"     ...........",
"      ......... ",
"       .......  ",
"        .....   "};
