/* XPM */
static const char * pending_xpm[] = {
"16 16 30 1",
" 	c None",
".	c #C9CCCF",
"+	c #CACCCF",
"@	c #C9CBCE",
"#	c #C9CCCE",
"$	c #C7CACD",
"%	c #C6C9CC",
"&	c #CED0D3",
"*	c #CDD0D2",
"=	c #E7E8E9",
"-	c #C7CACC",
";	c #EAEBEC",
">	c #E9EAEB",
",	c #EBECED",
"'	c #EDEEEF",
")	c #EFEFF0",
"!	c #ECEDEE",
"~	c #F0F1F2",
"{	c #FAFAFB",
"]	c #E4E6E7",
"^	c #D1D4D6",
"/	c #C8CBCE",
"(	c #E0E1E3",
"_	c #F9F9F9",
":	c #FDFDFD",
"<	c #F4F4F5",
"[	c #DEE0E1",
"}	c #D2D4D7",
"|	c #DBDCDE",
"1	c #E3E4E6",
"     .+@@+.     ",
"   #$%%&*%%$#   ",
"  %%%%%==%%%%%  ",
" @%%%%-;>%%%%%# ",
" $%%%%$,;-%%%%$ ",
".%%%%%$',$%%%%%.",
"+%%%%%$)!$%%%%%+",
"@%%%%%$~{]^/%%%@",
"@%%%%%%(_::<[$%@",
"+%%%%%%-@}|=1$%+",
".%%%%%%%%%%%%%%.",
" $%%%%%%%%%%%%$ ",
" #%%%%%%%%%%%%# ",
"  %%%%%%%%%%%%  ",
"   #$%%%%%%$#   ",
"     .+@@+.     "};
