/* XPM */
static const char * progress_6_xpm[] = {
"16 16 16 1",
" 	c None",
".	c #8B8B8B",
"+	c #A6A6A6",
"@	c #737373",
"#	c #C1C1C1",
"$	c #5A5A5A",
"%	c #5B5B5B",
"&	c #DDDDDD",
"*	c #464646",
"=	c #454545",
"-	c #313131",
";	c #323232",
">	c #202020",
",	c #010101",
"'	c #1F1F1F",
")	c #020202",
"       ..       ",
"    +  ..  @    ",
"    ++ .. @@    ",
"    ++ ..@@@    ",
" ##  +   @@ $%% ",
"  ###      %%$  ",
"   ##      %    ",
"&&&&        ***=",
"&&&&        ****",
"   &&      -    ",
"  &&&      --;  ",
" &&& &   >> --- ",
"    && ,,'>'    ",
"    && ,, '>    ",
"   &&  ,)  >    ",
"       ,)       "};
