/* XPM */
static const char * progress_12_xpm[] = {
"16 16 16 1",
" 	c None",
".	c #020202",
"+	c #010101",
"@	c #202020",
"#	c #DDDDDD",
"$	c #1F1F1F",
"%	c #313131",
"&	c #323232",
"*	c #303030",
"=	c #464646",
"-	c #5B5B5B",
";	c #C1C1C1",
">	c #5A5A5A",
",	c #737373",
"'	c #A6A6A6",
")	c #8B8B8B",
"       .+       ",
"    @  .+  ##   ",
"    @@ ++ ##    ",
"    $@$++ ##    ",
" %%% @@   # ### ",
"  &%%      ###  ",
"    *      ##   ",
"====        ####",
"====        ####",
"    -      ;;   ",
"  >--      ;;;  ",
" --> ,,   '  ;; ",
"    ,,,)) ''    ",
"    ,, )) ''    ",
"    ,  ))  '    ",
"       ))       "};
