/* XPM */
static const char * progress_7_xpm[] = {
"16 16 19 1",
" 	c None",
".	c #A6A6A6",
"+	c #C1C1C1",
"@	c #8B8B8B",
"#	c #8C8C8C",
"$	c #DDDDDD",
"%	c #737373",
"&	c #5A5A5A",
"*	c #5B5B5B",
"=	c #464646",
"-	c #474747",
";	c #454545",
">	c #010101",
",	c #313131",
"'	c #000000",
")	c #1F1F1F",
"!	c #202020",
"~	c #030303",
"{	c #020202",
"       ..       ",
"    +  ..  @    ",
"    ++ .. @@    ",
"    ++ ..#@#    ",
" $$$ +   @@ %%% ",
"  $$$      %%%  ",
"   $       %    ",
"$$$$        &&&&",
"$$$$        **&*",
"   $       =-   ",
"  $$$      ;==  ",
" $$  >   ,, === ",
"    >' )!,,,    ",
"    '~ )) ,,    ",
"   {>  ))  ,    ",
"       !)       "};
