/* XPM */
static const char * progress_11_xpm[] = {
"16 16 17 1",
" 	c None",
".	c #DDDDDD",
"+	c #000000",
"@	c #010101",
"#	c #020202",
"$	c #202020",
"%	c #1F1F1F",
"&	c #303030",
"*	c #313131",
"=	c #C1C1C1",
"-	c #A6A6A6",
";	c #464646",
">	c #5B5B5B",
",	c #8C8C8C",
"'	c #8B8B8B",
")	c #5A5A5A",
"!	c #737373",
"       ..       ",
"    +  ..  .    ",
"    @@ .. ..    ",
"     +#.. ..    ",
" $$% @#  .. ... ",
"  %$$      ...  ",
"    $           ",
"&***        ====",
"****        ====",
"           --   ",
"  ;;;      ---  ",
" ;;; >>  ,'  -- ",
"    )>)!! ',    ",
"    >) !! ''    ",
"    >  !!  '    ",
"       !!       "};
