/* XPM */
static const char * progress_8_xpm[] = {
"16 16 16 1",
" 	c None",
".	c #C1C1C1",
"+	c #DDDDDD",
"@	c #A6A6A6",
"#	c #8C8C8C",
"$	c #8B8B8B",
"%	c #737373",
"&	c #010101",
"*	c #020202",
"=	c #5B5B5B",
"-	c #5A5A5A",
";	c #000000",
">	c #202020",
",	c #464646",
"'	c #1F1F1F",
")	c #313131",
"       ..       ",
"    +  ..  @    ",
"    ++ .. @@    ",
"    ++ ..@@     ",
" +++ +   @@ #$$ ",
"  +++      $$$  ",
"    +      #    ",
"++++        %%%%",
"++++        %%%%",
"   &*      =-   ",
"  &;&      ==-  ",
" ;&  >>   , -== ",
"    '> )) ,,    ",
"    >' )) ,,    ",
"    >  ))  ,    ",
"       ))       "};
