/* XPM */
static const char * progress_5_xpm[] = {
"16 16 18 1",
" 	c None",
".	c #737373",
"+	c #8B8B8B",
"@	c #5B5B5B",
"#	c #5A5A5A",
"$	c #8C8C8C",
"%	c #A6A6A6",
"&	c #454545",
"*	c #464646",
"=	c #C1C1C1",
"-	c #313131",
";	c #303030",
">	c #202020",
",	c #DDDDDD",
"'	c #1F1F1F",
")	c #020202",
"!	c #010101",
"~	c #000000",
"       ..       ",
"    +  ..  @    ",
"    ++ .. #@    ",
"    $+ ..#@#    ",
" %%  +$  @@ &** ",
"  %%%      ***  ",
"   %%           ",
"====        ----",
"====        -;--",
"           >    ",
"  ,,,      >>'  ",
" ,,, ,,  )! '>> ",
"    ,, ,,!~     ",
"    ,, ,, !!    ",
"    ,  ,,  ~    ",
"       ,,       "};
