/* XPM */
static const char * progress_1_xpm[] = {
"16 16 16 1",
" 	c None",
".	c #202020",
"+	c #313131",
"@	c #1F1F1F",
"#	c #010101",
"$	c #020202",
"%	c #000000",
"&	c #303030",
"*	c #464646",
"=	c #DDDDDD",
"-	c #5B5B5B",
";	c #5A5A5A",
">	c #737373",
",	c #8B8B8B",
"'	c #C1C1C1",
")	c #A6A6A6",
"       ..       ",
"    +  @.  #$   ",
"    ++ @. $%    ",
"    ++&@. %$    ",
" *** ++   #  == ",
"  ***      ===  ",
"   **       =   ",
"-;;;        ====",
";;;;        ====",
"    >       =   ",
"  >>>      ===  ",
" >>> ,,   ' === ",
"    ,,,)) ''    ",
"    ,, )) ''    ",
"    ,  ))  '    ",
"       ))       "};
