/* XPM */
static const char * progress_2_xpm[] = {
"16 16 17 1",
" 	c None",
".	c #313131",
"+	c #464646",
"@	c #202020",
"#	c #1F1F1F",
"$	c #454545",
"%	c #5B5B5B",
"&	c #5A5A5A",
"*	c #010101",
"=	c #000000",
"-	c #020202",
";	c #737373",
">	c #DDDDDD",
",	c #8C8C8C",
"'	c #8B8B8B",
")	c #A6A6A6",
"!	c #C1C1C1",
"       ..       ",
"    +  ..  @    ",
"    ++ .. #@    ",
"    $+ .. @#    ",
" %%& +   @@  *= ",
"  &%%      *=*  ",
"   &%      --   ",
";;;;        >>>>",
";;;;        >>>>",
"    ,      >    ",
"  '''      >>>  ",
" ''' ))   > >>> ",
"     ))!! >>    ",
"    )) !! >>    ",
"    )  !!  >    ",
"       !!       "};
