/* XPM */
static const char * progress_3_xpm[] = {
"16 16 15 1",
" 	c None",
".	c #464646",
"+	c #5B5B5B",
"@	c #313131",
"#	c #5A5A5A",
"$	c #737373",
"%	c #1F1F1F",
"&	c #202020",
"*	c #8B8B8B",
"=	c #010101",
"-	c #020202",
";	c #000000",
">	c #A6A6A6",
",	c #DDDDDD",
"'	c #C1C1C1",
"       ..       ",
"    +  ..  @    ",
"    +# .. @@    ",
"    #+ .. @@    ",
" $$$ ++  @@ %&& ",
"  $$$      &&&  ",
"   $$      &%   ",
"****        ==--",
"****        =;==",
"                ",
"  >>>      ,,,  ",
" >>> ''  ,, ,,, ",
"     '',,,,,  , ",
"    '' ,, ,,    ",
"    '  ,,  ,    ",
"       ,,       "};
