/* XPM */
static const char * progress_10_xpm[] = {
"16 16 19 1",
" 	c None",
".	c #DDDDDD",
"+	c #020202",
"@	c #010101",
"#	c #000000",
"$	c #C1C1C1",
"%	c #030303",
"&	c #202020",
"*	c #1F1F1F",
"=	c #A6A6A6",
"-	c #313131",
";	c #8B8B8B",
">	c #8C8C8C",
",	c #454545",
"'	c #464646",
")	c #737373",
"!	c #474747",
"~	c #5B5B5B",
"{	c #5A5A5A",
"       ..       ",
"    .  ..  .    ",
"    .. .. ..    ",
" +   .......    ",
" @#@ .    . $$$ ",
"  %#@      $$$  ",
"                ",
"&***        ====",
"&***        ====",
"   --      ;>   ",
"  ---      ;;;  ",
" --- ,'  )) >;; ",
"    ''!~{ ))    ",
"    '' ~{ ))    ",
"    '  {{  )    ",
"       ~{       "};
