/* XPM */
static const char * progress_9_xpm[] = {
"16 16 16 1",
" 	c None",
".	c #DDDDDD",
"+	c #C1C1C1",
"@	c #A6A6A6",
"#	c #010101",
"$	c #8B8B8B",
"%	c #020202",
"&	c #1F1F1F",
"*	c #202020",
"=	c #737373",
"-	c #313131",
";	c #303030",
">	c #5B5B5B",
",	c #464646",
"'	c #5A5A5A",
")	c #323232",
"       ..       ",
"    .  ..  +    ",
"    .. .. ++    ",
" .  .....++     ",
" ... ..  ++ @@@ ",
"  ...      @@@  ",
"                ",
"####        $$$$",
"%%##        $$$$",
"   &*      ==   ",
"  &**      ===  ",
" **& -;  >> === ",
"    -- ,, >'    ",
"    -) ,, '>    ",
"    -  ,,  >    ",
"       ,,       "};
