/* XPM */
static const char * running_xpm[] = {
"16 16 80 1",
" 	c None",
".	c #8A8A8A",
"+	c #909090",
"@	c #8E8E8E",
"#	c #AFAFAF",
"$	c #ABABAB",
"%	c #898989",
"&	c #BABABA",
"*	c #959595",
"=	c #9B9B9B",
"-	c #E5E5E5",
";	c #E9E9E9",
">	c #9F9F9F",
",	c #D0D0D0",
"'	c #BEBEBE",
")	c #CBCBCB",
"!	c #C4C4C4",
"~	c #8C8C8C",
"{	c #989898",
"]	c #929292",
"^	c #BFBFBF",
"/	c #FDFDFD",
"(	c #C2C2C2",
"_	c #B2B2B2",
":	c #A3A3A3",
"<	c #A5A5A5",
"[	c #E4E4E4",
"}	c #A8A8A8",
"|	c #8D8D8D",
"1	c #EEEEEE",
"2	c #B4B4B4",
"3	c #ADADAD",
"4	c #8B8B8B",
"5	c #9A9A9A",
"6	c #AAAAAA",
"7	c #C0C0C0",
"8	c #D5D5D5",
"9	c #979797",
"0	c #CECECE",
"a	c #F2F2F2",
"b	c #E6E6E6",
"c	c #888888",
"d	c #C7C7C7",
"e	c #919191",
"f	c #B5B5B5",
"g	c #ACACAC",
"h	c #A1A1A1",
"i	c #9E9E9E",
"j	c #858585",
"k	c #969696",
"l	c #D9D9D9",
"m	c #F4F4F4",
"n	c #EFEFEF",
"o	c #9C9C9C",
"p	c #EBEBEB",
"q	c #F1F1F1",
"r	c #949494",
"s	c #C5C5C5",
"t	c #E2E2E2",
"u	c #DBDBDB",
"v	c #D2D2D2",
"w	c #C6C6C6",
"x	c #C3C3C3",
"y	c #E1E1E1",
"z	c #8F8F8F",
"A	c #CFCFCF",
"B	c #F9F9F9",
"C	c #CACACA",
"D	c #BCBCBC",
"E	c #C1C1C1",
"F	c #B9B9B9",
"G	c #FAFAFA",
"H	c #B8B8B8",
"I	c #B1B1B1",
"J	c #F7F7F7",
"K	c #DADADA",
"L	c #CDCDCD",
"M	c #D4D4D4",
"N	c #939393",
"O	c #D7D7D7",
"      .+@.      ",
"    #$%&$%*=    ",
"  .@-;>,'%)!~.  ",
"  {]^/(_:<[}~|  ",
" }1-2)34456=78= ",
" 90abc%...cd;(e ",
".+>fg%.....hijc.",
"klmno......=pq8r",
"estuk......*0v&+",
".%>wx%....csd>%.",
" iy/u+z%%r=ABt> ",
" *CD$pEFF(q$g7r ",
"  ~@,GHnnIJK@~  ",
"  .|LMNqqz,O|.  ",
"    +NcddcNN    ",
"      .zz.      "};
