/* XPM */
static const char * unacceptable_xpm[] = {
"16 16 80 1",
" 	c None",
".	c #FF0F0F",
"+	c #FF1B1B",
"@	c #FF0E0E",
"#	c #FF0000",
"$	c #FF1818",
"%	c #FE6665",
"&	c #FEC1BF",
"*	c #FE918F",
"=	c #FF100F",
"-	c #FF1917",
";	c #FE9593",
">	c #FDC1BE",
",	c #FF615F",
"'	c #FF1515",
")	c #FEC6C5",
"!	c #FFFCFC",
"~	c #FEF2F1",
"{	c #FE9D9B",
"]	c #FF2424",
"^	c #FF2927",
"/	c #FEA29D",
"(	c #FEF4F0",
"_	c #FFFDFC",
":	c #FEC2BE",
"<	c #FE9A9A",
"[	c #FDF4F4",
"}	c #FFFFFF",
"|	c #FDF2F1",
"1	c #FE9F9D",
"2	c #FEA39E",
"3	c #FEF4F1",
"4	c #FEF2F0",
"5	c #FE9793",
"6	c #FF1717",
"7	c #FF1A1B",
"8	c #FEA1A2",
"9	c #FDF3F3",
"0	c #FEFFFF",
"a	c #FEF4F3",
"b	c #FEF5F3",
"c	c #FE9D9A",
"d	c #FF1918",
"e	c #FF1F1F",
"f	c #FF2928",
"g	c #FEA3A3",
"h	c #FEF6F6",
"i	c #FEF4F2",
"j	c #FE9E9C",
"k	c #FF2524",
"l	c #FF2A28",
"m	c #FEA4A2",
"n	c #FFF6F5",
"o	c #FEF5F2",
"p	c #FEA09E",
"q	c #FF2726",
"r	c #FF1E1D",
"s	c #FEA3A1",
"t	c #FEF3F3",
"u	c #FEF5F5",
"v	c #FEF3F2",
"w	c #FF1514",
"x	c #FEF0EE",
"y	c #FE9C9A",
"z	c #FDA2A0",
"A	c #FCF4F1",
"B	c #FD9792",
"C	c #FEC5C4",
"D	c #FD9B98",
"E	c #FF2221",
"F	c #FF2826",
"G	c #FDA09D",
"H	c #FDF3F1",
"I	c #FDC2C1",
"J	c #FF6363",
"K	c #FDC1BF",
"L	c #FF1110",
"M	c #FE9491",
"N	c #FDBFBA",
"O	c #FF605E",
"      .++.      ",
"    @######@    ",
"  $##########$  ",
"  #%&*=##-;>,#  ",
" '#)!~{]^/(_:#' ",
" ##<[}|123}45## ",
"6##7890ab}4cd##6",
"e###fgh}}ijk###e",
"e###lmn}}opq###e",
"6##rso}tu}vjw##6",
" ##{a}xyzA}4B## ",
" '#C_4DEFGH_I#' ",
"  #JK*L##$MNO#  ",
"  $##########$  ",
"    @######@    ",
"      .++.      "};
